<svg xmlns="http://www.w3.org/2000/svg" width="64" height="64" fill="none"><g clip-path="url(#onboarding-popup_svg__a)"><path fill="#EDEDF3" fill-rule="evenodd" d="M61.143 48H16.857C15.28 48 14 46.7 14 45.095V6.905C14 5.301 15.279 4 16.857 4h44.286C62.72 4 64 5.3 64 6.905v38.19C64 46.699 62.721 48 61.143 48" clip-rule="evenodd"/><path fill="#fff" fill-rule="evenodd" d="M58.143 45H13.857C12.28 45 11 43.7 11 42.095V3.905C11 2.301 12.28 1 13.857 1h44.286C59.72 1 61 2.3 61 3.905v38.19C61 43.699 59.72 45 58.143 45" clip-rule="evenodd"/><path stroke="#6F7787" stroke-linecap="round" stroke-width="1.5" d="M58.143 45H13.857C12.28 45 11 43.7 11 42.095V3.905C11 2.301 12.28 1 13.857 1h44.286C59.72 1 61 2.3 61 3.905v38.19C61 43.699 59.72 45 58.143 45Z" clip-rule="evenodd"/><path fill="#6F7787" fill-rule="evenodd" d="M61 7H11V3.73C11 2.224 12.28 1 13.857 1h44.286C59.72 1 61 2.223 61 3.73z" clip-rule="evenodd"/><path stroke="#D2D4DE" stroke-linecap="round" stroke-width="1.5" d="M15 19h42m-42 5h42"/><path fill="#6CD898" fill-rule="evenodd" d="M57 36.462C57 38.382 55.367 40 53.445 40S50 38.381 50 36.462A3.436 3.436 0 0 1 53.445 33C55.367 33 57 34.542 57 36.462" clip-rule="evenodd"/><path fill="#fff" fill-rule="evenodd" d="M59 4a1 1 0 1 1-2 0 1 1 0 0 1 2 0m-4 0a1 1 0 1 1-2 0 1 1 0 0 1 2 0m-3 0a1 1 0 1 1-2 0 1 1 0 0 1 2 0M3 40.503C3.106 41.753 4.709 56.676 20.499 63 36.274 56.683 37.889 41.784 38 40.501V16.438C34.817 15.956 27.614 15 20.5 15S6.183 15.956 3 16.438z" clip-rule="evenodd"/><path fill="#D6B6F0" d="M17.972 61c16.202-6.448 17.862-21.658 17.975-22.967s.013-21.558.013-21.558c-.007-1.66-1.351-3.182-2.995-3.382 0 0-7.685-1.093-14.993-1.093-7.307 0-15.007 1.095-15.007 1.095C1.328 13.301 0 14.805 0 16.468v21.567S1.755 54.545 17.972 61"/><mask id="onboarding-popup_svg__b" width="37" height="49" x="0" y="12" maskUnits="userSpaceOnUse" style="mask-type:luminance"><path fill="#fff" d="M17.972 61c16.202-6.448 17.862-21.658 17.975-22.967s.013-21.558.013-21.558c-.007-1.66-1.351-3.182-2.995-3.382 0 0-7.685-1.093-14.993-1.093-7.307 0-15.007 1.095-15.007 1.095C1.328 13.301 0 14.805 0 16.468v21.567S1.755 54.545 17.972 61"/></mask><g mask="url(#onboarding-popup_svg__b)"><path fill="#CAA3E9" fill-rule="evenodd" d="M-12.8 4.222h32v59.89h-32z" clip-rule="evenodd"/></g><path stroke="#6F7787" stroke-linecap="round" stroke-width="1.5" d="M3 40.503C3.106 41.753 4.709 56.676 20.499 63 36.274 56.683 37.889 41.784 38 40.501V18.438c0-1.105-.889-2.118-1.983-2.256 0 0-8.403-1.182-15.517-1.182-7.115 0-15.53 1.184-15.53 1.184-1.088.14-1.97 1.153-1.97 2.254z" clip-rule="evenodd"/><path fill="#fff" fill-rule="evenodd" d="M19 25c-5.524 0-10 4.477-10 10v10h10.004c.688 0 1.362-.07 2.013-.203C25.574 43.864 29 39.833 29 35c0-5.523-4.475-10-10-10m1.305 10.89 1.117-1.838h4.498c.039.3.063.605.063.917 0 3.839-3.01 6.963-6.963 6.963-3.952 0-7.146-3.31-6.953-7.304.17-3.48 2.988-6.361 6.464-6.6a6.93 6.93 0 0 1 5.354 1.967l-.987 1.625a5.12 5.12 0 0 0-3.876-1.775c-3.685 0-6.476 3.915-4.433 7.807a4.2 4.2 0 0 0 1.789 1.77c3.552 1.842 7.108-.335 7.69-3.532z" clip-rule="evenodd"/></g><defs><clipPath id="onboarding-popup_svg__a"><path fill="#fff" d="M0 0h64v64H0z"/></clipPath></defs></svg>