<svg xmlns="http://www.w3.org/2000/svg" width="22" height="22" fill="none"><path fill="#027E6F" fill-rule="evenodd" d="M8.88 13.045c2.16-.46 3.825-2.46 3.825-4.905 0-2.798-2.174-5.005-4.785-5.005-2.61 0-4.785 2.207-4.785 5.005v5.005h4.787c.329 0 .65-.034.958-.1ZM7.92 2.2C4.76 2.2 2.2 4.86 2.2 8.14v5.94h5.722c.394 0 .78-.041 1.152-.12 2.606-.555 4.566-2.95 4.566-5.82 0-3.28-2.56-5.94-5.72-5.94Z" clip-rule="evenodd"/><path fill="#027E6F" d="M6.468 10.78h-.836l1.88-5.28h.91l1.878 5.28h-.836L7.988 6.459h-.04l-1.48 4.321Zm.14-2.068h2.713v.67H6.61v-.67Z"/><path fill="#027E6F" d="M19.8 14.016c0-3.195-2.56-5.785-5.72-5.785-3.16 0-5.72 2.59-5.72 5.785 0 2.795 1.96 5.127 4.566 5.667.373.077.759.117 1.152.117H19.8v-5.784Z"/><path fill="#fff" d="m15.215 12.354.77.225c-.758 2.186-2.158 3.46-4.309 4.141a4.425 4.425 0 0 0-.456-.71c2.079-.553 3.37-1.676 3.995-3.656Zm-2.319.049c.607 1.797 1.905 3.09 4.044 3.576-.175.17-.409.516-.523.729-2.253-.595-3.49-1.986-4.242-4.087l.721-.218Zm-1.568-.444h5.504v.717h-5.504v-.717ZM13.689 11h.745v1.397h-.745V11Z"/></svg>